<?xml version="1.0" standalone="no"?>
<!DOCTYPE svg PUBLIC "-//W3C//DTD SVG 20010904//EN"
 "http://www.w3.org/TR/2001/REC-SVG-20010904/DTD/svg10.dtd">
<svg version="1.0" xmlns="http://www.w3.org/2000/svg"
 width="658.000000pt" height="476.000000pt" viewBox="0 0 658.000000 476.000000"
 preserveAspectRatio="xMidYMid meet">

<g transform="translate(0.000000,476.000000) scale(0.100000,-0.100000)"
fill="#000000" stroke="none">
<path d="M4250 4011 c0 -5 -13 -14 -30 -21 -16 -7 -30 -16 -30 -21 0 -5 -5 -9
-11 -9 -6 0 -28 -13 -49 -30 -21 -16 -41 -30 -45 -30 -3 0 -13 -7 -21 -15 -10
-9 -34 -15 -67 -15 -195 0 -739 -101 -895 -166 -18 -8 -39 -14 -47 -14 -8 0
-29 -6 -47 -14 -18 -8 -53 -22 -78 -32 -50 -19 -354 -167 -384 -187 -172 -111
-157 -105 -226 -80 -35 12 -82 16 -205 16 -143 -1 -165 -3 -208 -23 -95 -43
-111 -79 -57 -129 28 -25 116 -61 151 -61 19 0 99 -33 99 -41 0 -4 -27 -32
-60 -63 l-61 -56 -99 0 c-55 0 -121 -5 -147 -11 -59 -15 -174 -69 -180 -86 -3
-7 -10 -13 -15 -13 -11 0 -138 -124 -138 -135 0 -3 -11 -23 -25 -43 -31 -46
-32 -67 -1 -87 29 -19 69 -7 87 26 35 66 132 125 187 114 55 -12 112 -28 112
-31 0 -3 -12 -23 -27 -47 -16 -23 -50 -87 -78 -142 -41 -83 -54 -101 -75 -103
-37 -5 -110 -33 -151 -58 -76 -47 -179 -171 -179 -216 0 -8 -13 -40 -30 -71
-38 -73 -38 -98 -3 -119 46 -26 79 -5 104 65 20 56 120 116 194 117 l31 0 13
-92 c19 -143 28 -190 41 -228 21 -57 84 -180 92 -180 5 0 8 -5 8 -10 0 -6 30
-39 66 -74 36 -36 64 -69 60 -74 -3 -5 -19 -15 -36 -22 -16 -7 -30 -16 -30
-21 0 -5 -6 -9 -14 -9 -19 0 -92 -84 -119 -135 -28 -55 -29 -192 -2 -250 29
-62 104 -155 125 -155 5 0 10 -4 10 -10 0 -8 162 -110 175 -110 2 0 32 -13 67
-28 100 -45 138 -59 210 -78 63 -16 69 -16 93 0 48 31 23 106 -36 106 -13 0
-37 10 -52 23 -35 28 -48 85 -40 177 6 63 8 67 59 118 54 53 64 78 43 99 -9 9
-6 10 12 6 13 -3 29 -9 34 -13 13 -8 121 -46 158 -54 20 -5 27 -12 27 -30 0
-31 35 -40 104 -27 28 5 77 13 109 16 56 6 57 6 57 -19 0 -14 5 -28 11 -32 25
-15 49 -90 49 -155 0 -119 -58 -229 -121 -229 -35 0 -89 -45 -89 -74 0 -51 55
-69 127 -42 21 8 96 17 170 21 156 7 224 24 348 89 28 14 62 31 78 37 15 6 27
15 27 20 0 5 5 9 10 9 12 0 73 41 78 53 2 4 8 7 13 7 11 0 23 9 87 67 51 45
74 83 92 156 12 45 14 47 48 47 45 0 212 25 312 47 89 19 206 56 275 88 28 12
69 31 93 41 23 10 42 21 42 26 0 4 5 8 10 8 15 0 170 101 170 111 0 5 4 9 9 9
6 0 25 13 43 30 18 16 41 30 51 30 20 0 94 -36 112 -54 31 -31 79 -155 87
-226 4 -33 51 -51 74 -28 22 21 44 154 44 263 0 97 -20 177 -65 267 -14 27
-25 54 -25 58 0 5 15 33 33 63 28 47 35 53 54 46 25 -9 95 -95 125 -152 11
-22 24 -69 29 -104 11 -79 25 -101 67 -109 26 -5 38 -2 58 17 22 21 24 29 24
121 0 99 0 100 -51 206 -29 59 -55 109 -58 112 -4 3 -22 38 -41 78 -31 65 -37
72 -63 72 -27 0 -29 2 -23 28 3 15 9 62 13 105 4 51 10 77 18 77 21 0 106 -41
132 -63 14 -12 39 -34 57 -49 17 -15 34 -28 39 -28 4 0 15 -8 25 -17 53 -51
126 -68 157 -36 13 12 16 28 13 63 -5 52 -55 128 -140 213 -26 26 -48 50 -48
52 0 6 -39 45 -44 45 -3 0 -18 12 -33 26 -15 14 -51 37 -80 50 -29 14 -55 29
-58 35 -4 5 -24 9 -46 9 -28 0 -39 -4 -39 -15 0 -30 -25 -14 -44 28 -21 45
-56 100 -68 105 -5 2 -8 8 -8 14 0 10 -40 64 -90 122 -14 17 -182 187 -374
379 -329 330 -351 349 -375 341 -28 -10 -36 -32 -27 -69 6 -23 161 -184 416
-431 216 -209 299 -302 378 -419 102 -151 132 -239 132 -390 0 -131 -21 -220
-76 -327 -8 -14 -14 -33 -14 -42 0 -9 -4 -16 -9 -16 -5 0 -13 -10 -17 -22 -4
-13 -19 -39 -34 -58 -15 -19 -29 -40 -31 -47 -14 -40 -260 -293 -285 -293 -3
0 -14 -9 -26 -20 -12 -11 -34 -26 -50 -32 -15 -7 -28 -16 -28 -19 0 -4 -12
-12 -27 -18 -16 -6 -35 -15 -43 -21 -28 -19 -145 -68 -225 -94 -111 -37 -247
-63 -409 -77 -148 -13 -329 -5 -623 27 -96 11 -202 15 -324 12 l-181 -3 6 75
c12 135 32 237 72 370 66 221 127 400 150 442 7 14 14 31 14 37 0 12 35 88
112 246 56 113 68 134 144 260 75 123 77 126 91 144 6 9 47 63 89 121 43 58
83 110 89 116 6 6 28 34 50 62 21 29 43 52 47 52 4 0 8 5 8 10 0 6 10 21 23
33 12 12 54 58 92 102 94 107 311 323 374 371 28 21 51 42 51 46 0 4 7 8 15 8
8 0 15 4 15 9 0 19 58 45 115 50 l60 6 3 41 c3 38 7 43 62 78 49 31 60 43 60
65 0 15 -5 32 -12 39 -14 14 -78 16 -78 3z m-538 -438 c-185 -185 -302 -310
-302 -323 0 -5 -4 -10 -9 -12 -5 -1 -51 -55 -101 -118 -50 -63 -99 -126 -110
-138 -11 -13 -20 -26 -20 -29 0 -2 -19 -30 -43 -61 -24 -31 -52 -73 -63 -92
-10 -19 -24 -40 -31 -47 -6 -7 -15 -22 -18 -33 -3 -11 -10 -20 -15 -20 -4 0
-10 -8 -13 -17 -4 -10 -22 -45 -41 -78 -70 -121 -200 -393 -226 -475 -5 -14
-18 -50 -30 -80 -41 -108 -101 -299 -134 -425 -37 -145 -46 -196 -46 -268 0
-41 -4 -78 -9 -81 -5 -3 -35 3 -67 15 -33 11 -68 23 -79 26 -42 13 -259 150
-322 203 -7 5 -16 10 -22 10 -5 0 -11 3 -13 8 -1 4 -28 25 -58 46 -179 128
-257 270 -275 499 l-7 87 26 0 c31 0 58 36 50 67 -3 12 -19 27 -35 33 -16 7
-29 19 -29 27 0 25 29 83 45 89 11 4 15 20 15 55 0 38 8 66 35 114 62 116 50
97 147 224 72 95 223 252 314 326 91 76 172 135 183 135 6 0 11 4 11 9 0 8 72
55 188 123 87 51 290 148 382 183 25 9 60 23 78 31 18 8 39 14 47 14 8 0 29 6
47 14 31 13 54 20 213 60 141 35 370 73 453 75 l62 1 -178 -177z m-1459 -289
c17 -6 17 -7 0 -23 -64 -56 -54 -54 -116 -21 -31 16 -65 30 -76 30 -10 0 -22
7 -25 17 -6 14 3 15 96 10 57 -3 111 -9 121 -13z m-373 -371 c-1 -5 -11 -21
-24 -37 l-24 -29 -66 19 c-77 22 -73 36 12 45 88 9 102 10 102 2z m3210 -401
c0 -4 26 -20 58 -34 31 -15 78 -47 105 -72 48 -47 45 -59 -8 -30 -16 9 -56 22
-88 28 l-58 11 -18 53 c-14 41 -15 52 -4 52 7 0 13 -4 13 -8z m-3510 -171 c0
-5 -4 -21 -10 -35 -9 -24 -15 -26 -64 -26 -68 0 -67 15 2 47 51 24 72 28 72
14z m3509 -363 c13 -38 11 -42 -16 -23 -14 10 -19 22 -16 35 8 29 19 25 32
-12z m-188 -393 c4 -6 11 -34 15 -64 l7 -53 -44 33 c-25 19 -55 41 -67 49
l-23 15 43 44 42 45 9 -30 c5 -16 13 -34 18 -39z m-2922 -156 c28 -18 51 -36
51 -40 0 -5 5 -9 10 -9 12 0 73 -41 78 -52 2 -5 8 -8 12 -8 5 0 35 -16 67 -35
45 -27 53 -35 34 -35 -15 0 -43 -20 -80 -58 -53 -54 -58 -64 -70 -128 -7 -38
-12 -97 -10 -132 3 -45 1 -62 -9 -62 -16 0 -143 61 -160 77 -6 6 -21 15 -32
18 -11 3 -20 11 -20 16 0 5 -5 9 -10 9 -22 0 -107 102 -123 148 -21 59 -21 75
0 135 20 55 86 122 150 152 24 11 43 23 43 28 0 13 19 7 69 -24z m1131 -319
c74 -6 169 -15 210 -20 41 -5 112 -9 158 -10 76 0 82 -2 82 -20 0 -48 -57
-121 -122 -156 -16 -8 -28 -19 -28 -24 0 -6 -5 -10 -11 -10 -5 0 -40 -19 -77
-42 -111 -71 -183 -101 -300 -123 -45 -9 -93 -15 -107 -13 l-24 3 21 45 c18
38 21 64 22 170 1 110 -2 130 -21 167 -12 22 -19 44 -15 48 3 3 22 3 42 0 19
-3 96 -10 170 -15z"/>
<path d="M1920 2049 c-45 -18 -70 -57 -70 -110 0 -75 29 -130 82 -157 50 -24
110 -28 148 -9 30 15 70 82 70 119 0 33 -48 116 -72 124 -10 3 -18 9 -18 13 0
9 -78 32 -102 30 -7 0 -24 -5 -38 -10z"/>
<path d="M3356 1718 c-65 -24 -92 -82 -74 -158 16 -69 44 -93 110 -93 56 -1
137 28 138 49 0 7 7 14 15 18 11 4 15 20 15 54 0 42 -5 55 -32 85 -19 20 -50
40 -73 46 -47 13 -61 13 -99 -1z"/>
</g>
</svg>
